<svg width="560" height="560" viewBox="0 0 560 560" fill="none" xmlns="http://www.w3.org/2000/svg">
	<path d="M270.705 0.156869C222.88 1.74492 176.682 15.3512 135.936 39.8779C98.111 62.6204 66.2472 93.8521 42.815 131.103C20.324 166.863 6.32345 206.937 1.67623 248.933C-0.853274 271.95 -0.519929 296.084 2.67626 319.023C7.77448 355.646 20.1867 391.054 39.0893 422.795C57.9331 454.497 82.7183 482.083 112.268 504.237C136.152 522.137 163.231 536.331 191.487 545.722C227.959 557.858 266.45 562.309 305.197 558.878C381.2 552.153 451.241 514.432 499.047 454.497C533.813 410.914 554.637 358.391 559.147 302.946C559.735 295.672 559.853 292.83 559.971 283.635C560.108 271.852 559.775 263.088 558.755 252.658C553.5 198.742 532.872 147.924 499.047 105.517C478.144 79.3244 452.888 57.1896 424.064 39.8582C378.003 12.1359 324.766 -1.64685 270.705 0.156869ZM175.702 160.119C175.702 160.237 176.937 160.315 179.016 160.315C180.898 160.315 182.585 160.413 182.898 160.531C183.193 160.648 184.369 160.786 185.506 160.845C186.644 160.903 187.938 161.06 188.408 161.217C188.859 161.374 189.722 161.491 190.31 161.491C190.879 161.491 191.605 161.59 191.918 161.707C192.212 161.825 193.173 162.001 194.036 162.08C194.879 162.158 195.624 162.315 195.664 162.452C195.703 162.57 196.213 162.668 196.899 162.668C197.526 162.668 198.056 162.746 198.056 162.844C198.056 162.942 198.428 163.08 198.899 163.138C199.35 163.217 200.173 163.393 200.703 163.55C201.252 163.687 202.174 163.962 202.781 164.119C203.389 164.295 204.017 164.432 204.213 164.432C204.389 164.432 204.683 164.511 204.88 164.609C205.056 164.726 205.742 164.942 206.389 165.119C207.036 165.295 207.821 165.569 208.115 165.726C208.429 165.883 208.939 166.001 209.272 166.001C209.586 166.001 209.978 166.138 210.135 166.295C210.311 166.452 210.605 166.589 210.821 166.589C211.017 166.589 211.527 166.765 211.919 166.981C212.331 167.197 212.821 167.373 212.997 167.373C213.194 167.373 213.35 167.452 213.35 167.569C213.35 167.667 213.507 167.765 213.703 167.765C213.899 167.765 214.233 167.903 214.449 168.059C214.645 168.216 215.056 168.353 215.37 168.353C215.664 168.353 215.9 168.432 215.9 168.53C215.9 168.628 216.449 168.902 217.135 169.138C217.802 169.393 218.488 169.706 218.664 169.863C218.821 170 219.076 170.118 219.233 170.118C219.37 170.118 219.782 170.294 220.135 170.53C220.508 170.745 220.802 170.863 220.802 170.785C220.802 170.706 220.959 170.785 221.155 170.941C221.331 171.098 221.88 171.412 222.37 171.647C223.763 172.333 226.174 173.647 226.292 173.804C226.351 173.882 226.606 174.059 226.88 174.196C227.155 174.314 227.508 174.51 227.665 174.627C227.822 174.725 228.645 175.215 229.488 175.725C230.312 176.215 230.998 176.686 230.998 176.745C230.998 176.823 231.351 177.058 231.782 177.254C232.214 177.47 232.567 177.705 232.567 177.784C232.567 177.862 232.881 178.097 233.273 178.274C233.665 178.47 234.175 178.803 234.41 179.019C235.116 179.686 235.9 180.313 236.038 180.313C236.175 180.313 237.783 181.587 238.371 182.175C238.587 182.391 239.253 182.96 239.842 183.45C241.9 185.155 250.018 193.468 250.018 193.86C250.018 193.958 250.136 194.096 250.273 194.174C250.411 194.252 251.077 195.076 251.744 195.997C252.43 196.919 253.156 197.88 253.391 198.154C254.273 199.272 255.391 201.467 255.646 202.663C255.705 202.938 255.862 203.271 255.979 203.428C256.097 203.565 256.215 204.84 256.254 206.31C256.313 208.349 256.274 209.114 256.019 209.839C255.842 210.349 255.705 210.937 255.705 211.133C255.705 211.349 255.568 211.643 255.411 211.8C255.254 211.976 255.117 212.309 255.117 212.545C255.117 212.799 254.979 213.113 254.823 213.25C254.666 213.388 254.528 213.584 254.528 213.701C254.528 214.191 252.018 217.054 250.509 218.309C250.077 218.642 249.626 219.034 249.489 219.132C249.352 219.25 249.175 219.328 249.058 219.328C248.96 219.328 248.842 219.465 248.763 219.622C248.705 219.779 248.509 219.916 248.332 219.916C248.136 219.916 248.038 219.975 248.116 220.034C248.175 220.112 247.783 220.465 247.214 220.838C246.646 221.23 245.94 221.779 245.606 222.073C245.293 222.367 244.685 222.798 244.293 223.034C243.881 223.288 243.548 223.543 243.548 223.602C243.548 223.681 243.214 223.955 242.802 224.229C242.41 224.504 241.724 225.053 241.293 225.445C240.861 225.857 240.43 226.19 240.351 226.19C240.116 226.19 237.802 227.974 237.606 228.288C237.528 228.425 237.351 228.543 237.234 228.543C237.116 228.543 236.606 228.876 236.116 229.268C235.626 229.68 234.979 230.19 234.685 230.405C233.234 231.484 231.822 232.601 231.292 233.091C230.979 233.385 230.547 233.699 230.371 233.758C230.175 233.817 230.018 233.954 230.018 234.052C230.018 234.15 229.9 234.228 229.743 234.228C229.586 234.228 229.429 234.366 229.351 234.522C229.292 234.679 229.116 234.817 228.939 234.817C228.782 234.817 228.645 234.875 228.645 234.954C228.645 235.052 227.978 235.601 227.194 236.189C226.39 236.777 225.782 237.326 225.841 237.404C225.88 237.502 225.802 237.561 225.665 237.561C225.018 237.561 224.527 237.287 224.331 236.797C224.214 236.522 224.017 236.11 223.88 235.895C223.115 234.64 220.311 230.895 219.998 230.699C219.9 230.641 219.527 230.17 219.174 229.66C217.841 227.798 211.625 221.681 211.056 221.681C210.919 221.681 210.762 221.504 210.703 221.289C210.644 221.073 210.468 220.897 210.311 220.897C210.174 220.897 210.017 220.818 209.978 220.74C209.88 220.485 206.742 218.152 206.644 218.269C206.585 218.309 206.389 218.171 206.193 217.956C205.997 217.74 205.723 217.564 205.566 217.564C205.429 217.564 205.252 217.426 205.193 217.269C205.115 217.113 204.899 216.975 204.703 216.975C204.507 216.975 204.331 216.897 204.331 216.799C204.331 216.701 204.154 216.544 203.919 216.485C203.703 216.407 203.134 216.093 202.664 215.779C202.193 215.466 201.683 215.211 201.526 215.211C201.37 215.211 201.134 215.074 200.997 214.917C200.86 214.76 200.605 214.623 200.409 214.623C200.213 214.623 199.958 214.485 199.821 214.329C199.683 214.172 199.448 214.035 199.311 214.035C199.154 214.035 198.879 213.956 198.683 213.858C196.918 212.976 195.114 212.231 193.644 211.8C192.683 211.505 191.624 211.133 191.291 210.996C190.977 210.858 190.291 210.682 189.781 210.604C189.271 210.545 188.801 210.408 188.742 210.29C188.663 210.192 188.31 210.113 187.918 210.113C187.546 210.113 186.82 209.976 186.31 209.819C185.134 209.447 183.036 209.114 181.192 209.016C180.388 208.957 179.506 208.819 179.251 208.682C178.702 208.408 165.721 208.349 164.427 208.604C163.996 208.702 162.76 208.839 161.682 208.917C160.603 208.996 159.525 209.172 159.29 209.29C159.054 209.427 158.348 209.525 157.721 209.525C157.074 209.525 156.466 209.623 156.329 209.761C156.192 209.898 155.623 210.055 155.074 210.133C153.525 210.368 150.603 211.133 149.368 211.643C149.054 211.78 148.603 211.878 148.329 211.878C148.074 211.878 147.858 211.956 147.858 212.054C147.858 212.152 147.603 212.27 147.289 212.329C146.976 212.388 146.583 212.584 146.426 212.76C146.25 212.917 145.936 213.054 145.701 213.054C145.485 213.054 144.721 213.309 144.034 213.642C143.348 213.956 142.681 214.231 142.564 214.231C142.466 214.231 142.368 214.309 142.368 214.427C142.368 214.525 142.191 214.623 141.975 214.623C141.779 214.623 141.426 214.819 141.191 215.054C140.975 215.289 140.799 215.427 140.799 215.348C140.799 215.289 140.191 215.544 139.426 215.917C138.681 216.309 138.054 216.701 138.054 216.799C138.054 216.897 137.936 216.975 137.799 216.975C137.642 216.975 137.171 217.211 136.759 217.524C136.348 217.818 135.759 218.171 135.465 218.328C135.171 218.485 134.74 218.76 134.544 218.975C134.328 219.171 134.073 219.328 133.955 219.328C133.857 219.328 133.74 219.465 133.661 219.622C133.602 219.779 133.426 219.916 133.25 219.916C133.093 219.916 132.955 219.975 132.936 220.053C132.936 220.152 132.406 220.602 131.74 221.093C131.093 221.583 130.249 222.269 129.896 222.602C129.524 222.955 129.191 223.249 129.151 223.249C129.053 223.249 125.23 227.17 124.759 227.758C124.524 228.033 123.837 228.856 123.19 229.621C122.563 230.366 121.818 231.346 121.543 231.797C121.249 232.229 120.916 232.719 120.759 232.876C120.269 233.405 119.288 234.915 119.151 235.346C119.073 235.601 118.916 235.797 118.818 235.797C118.72 235.797 118.641 235.895 118.641 236.012C118.641 236.228 117.308 238.542 117.072 238.738C117.014 238.796 116.798 239.228 116.582 239.718C116.386 240.208 116.092 240.737 115.955 240.914C115.818 241.071 115.7 241.306 115.7 241.404C115.7 241.502 115.386 242.188 115.014 242.933C114.641 243.698 114.327 244.423 114.327 244.561C114.327 244.698 114.249 244.815 114.131 244.815C114.033 244.815 113.935 245.07 113.935 245.384C113.935 245.698 113.798 246.051 113.641 246.188C113.484 246.325 113.347 246.619 113.347 246.854C113.327 247.07 113.21 247.482 113.053 247.756C112.896 248.031 112.778 248.482 112.759 248.756C112.759 249.05 112.621 249.384 112.464 249.521C112.308 249.658 112.17 249.932 112.17 250.129C112.17 250.325 112.053 250.776 111.896 251.128C111.739 251.481 111.464 252.305 111.288 252.952C111.111 253.599 110.857 254.442 110.739 254.814C110.621 255.187 110.464 255.814 110.386 256.187C110.288 256.559 110.072 257.481 109.915 258.245C109.739 258.99 109.523 260.186 109.425 260.892C109.327 261.598 109.17 262.421 109.053 262.715C108.935 263.029 108.837 263.637 108.837 264.088C108.837 264.539 108.739 265.264 108.621 265.695C108.504 266.127 108.347 267.538 108.249 268.832C108.151 270.126 107.994 271.714 107.876 272.361C107.641 273.891 107.621 285.242 107.876 287.262C107.974 288.124 108.151 289.751 108.249 290.889C108.445 293.065 108.876 296.084 109.209 297.555C109.327 298.045 109.406 298.75 109.425 299.143C109.425 299.535 109.562 300.123 109.719 300.417C109.876 300.731 110.013 301.299 110.013 301.672C110.013 302.044 110.151 302.534 110.308 302.73C110.464 302.946 110.602 303.456 110.602 303.868C110.602 304.279 110.68 304.613 110.759 304.613C110.837 304.613 110.935 304.985 110.974 305.436C110.994 305.867 111.151 306.416 111.288 306.652C111.445 306.867 111.582 307.279 111.582 307.553C111.582 307.828 111.7 308.259 111.837 308.534C111.974 308.808 112.249 309.514 112.445 310.102C112.759 311.102 112.915 311.455 113.661 313.2C113.817 313.553 113.935 314.004 113.935 314.2C113.935 314.396 114.072 314.67 114.229 314.807C114.386 314.945 114.523 315.18 114.523 315.337C114.523 315.474 114.661 315.827 114.837 316.082C115.014 316.356 115.112 316.572 115.053 316.572C114.974 316.572 115.425 317.513 117.484 321.473C117.857 322.179 118.19 322.787 118.249 322.846C118.308 322.905 118.524 323.277 118.72 323.669C118.935 324.081 119.171 324.414 119.249 324.414C119.327 324.414 119.465 324.61 119.543 324.846C119.622 325.1 119.935 325.61 120.229 326.002C120.543 326.394 120.798 326.806 120.798 326.904C120.798 327.002 121.092 327.375 121.445 327.747C121.798 328.12 122.249 328.688 122.465 329.022C123.132 330.1 125.112 332.472 126.543 333.962C128.465 335.962 132.622 339.628 133.818 340.393C134.152 340.608 134.642 340.961 134.897 341.197C135.152 341.432 135.701 341.785 136.112 342C136.524 342.196 136.877 342.471 136.877 342.589C136.877 342.726 136.995 342.843 137.132 342.843C137.289 342.843 137.779 343.118 138.211 343.432C138.662 343.765 139.132 344.02 139.25 344.02C139.367 344.02 139.583 344.157 139.74 344.314C139.916 344.471 140.211 344.608 140.426 344.608C140.622 344.608 140.799 344.686 140.799 344.804C140.799 344.902 140.916 345 141.054 345C141.211 345 141.524 345.177 141.779 345.392C142.034 345.608 142.309 345.784 142.407 345.784C142.505 345.784 143.054 346 143.603 346.235C144.172 346.49 145.015 346.863 145.505 347.039C145.995 347.235 146.642 347.51 146.936 347.666C147.25 347.823 147.642 347.941 147.838 347.941C148.015 347.941 148.348 348.078 148.564 348.235C148.76 348.392 149.152 348.529 149.427 348.529C149.701 348.529 150.093 348.666 150.289 348.823C150.505 348.98 150.897 349.117 151.172 349.117C151.446 349.137 151.897 349.255 152.172 349.411C152.446 349.568 152.956 349.686 153.309 349.705C153.662 349.705 154.211 349.843 154.525 350C154.839 350.156 155.505 350.313 156.015 350.333C156.544 350.352 157.192 350.47 157.466 350.627C157.741 350.764 158.505 350.882 159.172 350.882C159.878 350.882 160.407 350.98 160.447 351.097C160.702 351.882 178.055 351.882 180.408 351.097C180.781 350.98 181.545 350.882 182.094 350.882C182.643 350.882 183.428 350.745 183.8 350.588C184.193 350.431 184.84 350.294 185.251 350.294C185.663 350.294 186.349 350.156 186.781 350C187.212 349.843 187.84 349.725 188.173 349.705C188.506 349.705 188.899 349.568 189.036 349.411C189.193 349.235 189.624 349.117 190.134 349.117C190.761 349.117 190.997 349.039 190.997 348.823C190.997 348.608 191.212 348.529 191.761 348.529C192.173 348.529 192.781 348.392 193.075 348.235C193.389 348.078 193.801 347.941 193.997 347.941C194.173 347.941 194.33 347.863 194.33 347.764C194.33 347.666 194.683 347.529 195.095 347.451C195.526 347.372 195.977 347.196 196.115 347.039C196.232 346.882 196.507 346.765 196.703 346.765C196.918 346.765 197.232 346.686 197.428 346.588C198.311 346.098 200.742 345 200.938 345C201.056 345 201.252 344.863 201.389 344.706C201.526 344.549 201.801 344.412 201.997 344.412C202.213 344.412 202.37 344.314 202.37 344.216C202.37 344.098 202.487 344.02 202.644 344.02C202.801 344.02 203.056 343.902 203.193 343.765C203.33 343.647 203.86 343.334 204.389 343.079C204.899 342.824 205.311 342.53 205.311 342.432C205.311 342.334 205.448 342.255 205.605 342.255C205.938 342.255 206.821 341.746 207.272 341.275C207.429 341.118 207.684 340.961 207.801 340.942C208.037 340.883 208.742 340.354 209.468 339.648C209.664 339.471 209.997 339.314 210.213 339.314C210.429 339.314 210.605 339.256 210.605 339.158C210.605 339.079 211.39 338.393 212.35 337.648C213.311 336.883 214.213 336.08 214.35 335.825C214.488 335.589 214.762 335.393 214.958 335.393C215.154 335.393 215.311 335.335 215.311 335.237C215.311 335.158 216.684 333.707 218.351 332.002C220.017 330.315 221.39 328.845 221.39 328.747C221.39 328.649 221.527 328.453 221.723 328.316C222.174 327.924 225.508 323.473 225.508 323.238C225.508 323.12 225.606 323.042 225.704 323.042C225.821 323.042 225.9 322.924 225.9 322.787C225.9 322.532 226.88 321.473 227.135 321.473C227.233 321.473 227.998 321.983 229.665 323.179C229.998 323.434 230.194 323.63 230.096 323.63C229.998 323.63 230.194 323.787 230.508 323.983C230.841 324.199 231.214 324.493 231.371 324.669C231.508 324.865 231.704 325.002 231.802 325.002C231.9 325.002 232.155 325.159 232.351 325.336C232.881 325.826 233.155 326.022 234.135 326.747C234.626 327.081 235.292 327.571 235.606 327.845C237.783 329.59 243.116 333.629 243.253 333.629C243.312 333.629 243.626 333.903 243.94 334.217C244.254 334.531 244.606 334.805 244.704 334.805C244.822 334.805 244.979 334.923 245.057 335.04C245.136 335.178 245.352 335.374 245.528 335.491C246.116 335.844 248.156 337.432 248.744 337.981C249.077 338.275 249.391 338.53 249.45 338.53C249.509 338.53 249.92 338.805 250.332 339.138C250.764 339.471 251.391 339.981 251.764 340.256C253.999 342.02 254.332 342.373 255.862 344.53C256.313 345.177 256.881 346.412 256.881 346.745C256.881 346.98 257.019 347.157 257.176 347.157C257.352 347.157 257.47 347.274 257.45 347.392C257.372 348.098 257.489 348.941 257.666 348.823C257.803 348.745 257.862 349.803 257.862 351.842C257.862 353.823 257.783 354.999 257.666 354.999C257.568 354.999 257.47 355.254 257.47 355.548C257.47 355.862 257.332 356.273 257.176 356.489C257.019 356.685 256.881 357.097 256.881 357.371C256.881 357.665 256.744 357.999 256.587 358.136C256.43 358.273 256.293 358.548 256.293 358.744C256.293 358.94 256.175 359.175 256.038 359.253C255.901 359.332 255.43 359.94 254.999 360.587C254.097 361.979 250.685 366.292 249.077 368.076C247.391 369.978 243.195 374.193 241.9 375.291C239.567 377.291 238.881 377.859 237.685 378.82C236.998 379.349 236.312 379.937 236.136 380.094C235.979 380.251 235.685 380.467 235.488 380.584C234.508 381.153 232.567 382.545 232.567 382.682C232.567 382.761 232.39 382.839 232.175 382.839C231.959 382.839 231.782 382.917 231.782 383.015C231.782 383.192 229.684 384.603 229.41 384.603C229.312 384.603 229.233 384.682 229.233 384.78C229.233 384.878 229.037 385.035 228.802 385.113C228.547 385.192 228.312 385.29 228.253 385.368C228.155 385.486 228.076 385.525 226.292 386.486C225.704 386.799 225.135 387.133 225.018 387.211C224.508 387.623 220.253 389.701 219.919 389.701C219.782 389.701 219.566 389.838 219.429 389.995C219.292 390.152 219.037 390.289 218.841 390.289C218.645 390.289 218.39 390.426 218.253 390.583C218.115 390.74 217.88 390.877 217.723 390.877C217.566 390.877 216.919 391.152 216.253 391.465C215.605 391.799 214.958 392.054 214.801 392.054C214.527 392.054 213.468 392.485 212.527 392.955C212.252 393.112 211.841 393.23 211.625 393.23C211.39 393.23 211.174 393.308 211.115 393.406C211.056 393.504 210.684 393.642 210.311 393.7C209.939 393.779 209.625 393.916 209.625 394.014C209.625 394.132 209.409 394.21 209.135 394.21C208.88 394.21 208.311 394.328 207.919 394.485C207.507 394.642 206.507 394.955 205.703 395.19C204.899 395.445 204.056 395.7 203.84 395.798C203.625 395.877 203.036 395.994 202.527 396.073C202.017 396.132 201.546 396.269 201.487 396.386C201.409 396.484 201.115 396.563 200.821 396.563C200.507 396.563 199.938 396.7 199.566 396.857C199.173 397.014 198.468 397.151 198.017 397.151C197.546 397.171 196.958 397.288 196.683 397.445C196.409 397.602 195.762 397.739 195.213 397.739C194.683 397.739 194.016 397.876 193.742 398.033C193.467 398.19 192.761 398.327 192.173 398.327C191.585 398.347 190.781 398.445 190.408 398.582C190.036 398.719 189.055 398.857 188.252 398.896C187.448 398.916 186.644 399.033 186.467 399.131C186.291 399.229 185.016 399.366 183.663 399.425C182.291 399.504 181.134 399.641 181.075 399.739C180.938 399.955 158.839 399.955 158.839 399.739C158.839 399.641 157.76 399.504 156.446 399.425C153.819 399.288 153.074 399.21 152.799 399.033C152.701 398.974 151.878 398.916 150.976 398.896C150.074 398.876 149.211 398.778 149.074 398.661C148.936 398.543 148.093 398.425 147.211 398.367C146.328 398.327 145.368 398.151 145.073 398.014C144.779 397.857 144.073 397.739 143.485 397.739C142.877 397.739 142.289 397.622 142.054 397.445C141.858 397.288 141.25 397.151 140.701 397.151C140.152 397.151 139.544 397.033 139.328 396.877C139.112 396.739 138.544 396.563 138.054 396.504C137.563 396.445 136.779 396.308 136.289 396.171C135.799 396.034 135.093 395.857 134.72 395.759C133.132 395.367 131.053 394.759 130.446 394.485C130.093 394.347 129.602 394.21 129.367 394.21C129.112 394.21 128.838 394.132 128.74 394.053C128.622 393.975 128.014 393.74 127.367 393.544C126.72 393.348 125.857 393.053 125.465 392.897C125.053 392.72 124.583 392.563 124.386 392.544C124.19 392.524 123.779 392.406 123.484 392.289C123.171 392.152 122.857 392.054 122.759 392.054C122.661 392.054 122.465 391.936 122.328 391.818C122.053 391.544 121.033 391.132 120.112 390.897C119.778 390.818 119.347 390.642 119.131 390.524C118.916 390.407 118.21 390.073 117.563 389.799C116.916 389.505 116.053 389.113 115.641 388.897C115.229 388.701 114.778 388.525 114.641 388.525C114.484 388.525 114.327 388.387 114.249 388.23C114.19 388.074 114.014 387.936 113.837 387.936C113.661 387.936 113.308 387.799 113.053 387.623C112.778 387.446 112.563 387.368 112.563 387.446C112.563 387.525 112.445 387.485 112.288 387.368C111.798 386.956 110.249 386.211 110.131 386.309C110.072 386.388 110.013 386.348 110.013 386.231C110.013 386.113 109.523 385.78 108.935 385.486C108.347 385.172 107.856 384.858 107.856 384.76C107.856 384.682 107.7 384.603 107.484 384.603C107.288 384.603 107.013 384.466 106.876 384.309C106.739 384.153 106.562 384.015 106.464 384.015C106.386 384.015 105.935 383.76 105.464 383.466C104.994 383.153 104.307 382.721 103.935 382.525C103.562 382.329 103.209 382.114 103.15 382.055C102.837 381.741 101.19 380.682 101.013 380.682C100.895 380.682 100.797 380.604 100.797 380.506C100.797 380.349 99.817 379.663 99.3856 379.526C99.3072 379.506 98.9738 379.232 98.6405 378.918C98.3071 378.604 97.8561 378.29 97.6404 378.232C97.4443 378.153 97.2679 378.016 97.2679 377.918C97.2679 377.82 97.1502 377.741 97.0326 377.741C96.8953 377.741 96.3855 377.349 95.8953 376.859C95.4051 376.389 94.9541 375.997 94.8756 375.977C94.7972 375.977 94.4442 375.703 94.0913 375.389C93.7383 375.056 93.3462 374.801 93.1893 374.801C93.052 374.801 92.9932 374.703 93.052 374.605C93.1109 374.487 93.052 374.35 92.8952 374.291C92.3657 374.095 84.3262 366.39 84.3262 366.096C84.3262 366.017 84.0713 365.723 83.7772 365.429C83.4635 365.135 82.2477 363.743 81.0908 362.351C79.9143 360.939 78.8947 359.763 78.8162 359.704C78.7574 359.645 78.5417 359.332 78.3652 358.979C78.1888 358.646 77.7378 358.018 77.3652 357.607C76.9926 357.195 76.6789 356.744 76.6789 356.607C76.6789 356.489 76.6005 356.371 76.522 356.371C76.3652 356.371 75.9142 355.724 73.8945 352.666C73.6984 352.391 73.4827 352.019 73.4043 351.862C73.3455 351.705 73.0905 351.294 72.8552 350.98C72.6199 350.647 72.1493 349.902 71.8356 349.313C71.5219 348.725 70.9924 347.843 70.6591 347.353C70.3453 346.863 69.914 346.078 69.7179 345.588C69.5218 345.098 69.2473 344.569 69.11 344.412C68.9924 344.255 68.4629 343.236 67.9531 342.157C67.4433 341.079 66.9531 340.059 66.855 339.903C66.757 339.746 66.5805 339.413 66.4825 339.158C66.1295 338.354 65.2863 336.491 64.9922 335.923C64.8353 335.609 64.7177 335.197 64.7177 334.982C64.7177 334.786 64.6393 334.609 64.5216 334.609C64.4236 334.609 64.2667 334.315 64.149 333.962C64.051 333.629 63.698 332.629 63.3843 331.766C62.0313 328.1 61.3842 326.257 61.3842 326.022C61.3842 325.865 61.2666 325.473 61.1097 325.14C60.9529 324.787 60.796 324.297 60.7372 324.022C60.6783 323.748 60.5411 323.238 60.4234 322.885C60.3058 322.552 60.1097 321.964 59.992 321.611C59.8744 321.277 59.6979 320.591 59.5999 320.121C59.5018 319.65 59.345 319.16 59.2469 319.042C59.1685 318.925 59.0312 318.395 58.9724 317.846C58.9136 317.317 58.7763 316.846 58.6587 316.807C58.541 316.768 58.443 316.376 58.443 315.925C58.443 315.474 58.3057 314.749 58.1488 314.317C57.992 313.886 57.8743 313.18 57.8547 312.729C57.8547 312.298 57.7174 311.769 57.5606 311.553C57.4037 311.337 57.2861 310.749 57.2664 310.141C57.2664 309.592 57.188 309.122 57.09 309.122C56.9919 309.122 56.8547 308.534 56.7958 307.789C56.7174 307.063 56.5409 305.887 56.3841 305.181C56.2272 304.456 56.0899 303.417 56.0899 302.887C56.0899 302.338 55.9919 301.652 55.8742 301.338C55.7566 301.044 55.6193 300.084 55.5801 299.221C55.5213 298.358 55.3448 296.751 55.1879 295.633C55.0311 294.535 54.9134 292.79 54.9134 291.771C54.9134 290.653 54.835 289.908 54.7173 289.908C54.5801 289.908 54.5213 286.575 54.5213 280.282C54.5213 273.93 54.5801 270.714 54.7173 270.793C54.835 270.871 54.9134 270.244 54.9134 269.068C54.9134 268.048 55.0115 266.734 55.1095 266.166C55.2272 265.578 55.4036 264.049 55.5017 262.774C55.5997 261.5 55.7762 260.343 55.8742 260.245C55.9919 260.127 56.0899 259.265 56.0899 258.343C56.0899 257.383 56.188 256.559 56.3056 256.442C56.4233 256.324 56.5998 255.5 56.6978 254.599C56.7958 253.697 56.9723 252.873 57.0704 252.775C57.188 252.658 57.2664 252.246 57.2664 251.834C57.2664 251.422 57.4037 250.756 57.5606 250.364C57.7174 249.991 57.8547 249.285 57.8547 248.815C57.8547 248.364 57.9724 247.854 58.1292 247.717C58.2665 247.56 58.443 247.011 58.5018 246.482C58.5606 245.933 58.8155 244.874 59.0312 244.129C59.2665 243.365 59.5018 242.404 59.5606 241.973C59.6195 241.541 59.7959 241.012 59.9332 240.796C60.0901 240.581 60.2077 240.188 60.2077 239.894C60.2077 239.6 60.345 239.267 60.5019 239.13C60.6587 238.993 60.796 238.6 60.796 238.228C60.796 237.875 60.894 237.522 60.9921 237.463C61.1097 237.404 61.1882 237.13 61.1882 236.855C61.1882 236.581 61.3058 236.13 61.4627 235.836C61.6195 235.542 61.796 234.973 61.8745 234.562C61.9529 234.17 62.0901 233.836 62.1686 233.836C62.247 233.836 62.3843 233.503 62.4627 233.091C62.5411 232.699 62.6784 232.268 62.7568 232.17C62.9921 231.895 63.5412 230.268 63.5412 229.856C63.5412 229.68 63.6196 229.523 63.7373 229.523C63.8353 229.523 64.0118 229.15 64.149 228.68C64.2667 228.229 64.4824 227.719 64.6393 227.543C64.7961 227.366 64.855 227.19 64.7961 227.112C64.7373 227.053 64.953 226.484 65.2863 225.876C65.6197 225.249 65.8942 224.543 65.8942 224.288C65.8942 224.033 66.0315 223.779 66.1883 223.72C66.3452 223.641 66.4825 223.445 66.4825 223.249C66.4825 223.053 66.6197 222.759 66.7766 222.583C66.9335 222.426 67.0707 222.132 67.0707 221.916C67.0707 221.7 67.208 221.426 67.3648 221.289C67.5217 221.151 67.659 220.936 67.659 220.798C67.659 220.681 67.8747 220.171 68.1492 219.701C68.4237 219.23 68.6982 218.701 68.7571 218.544C68.8355 218.387 69.0316 218.093 69.1884 217.916C69.3453 217.72 69.4237 217.446 69.3453 217.269C69.2865 217.093 69.3453 216.917 69.5218 216.858C69.6787 216.799 69.8551 216.544 69.9336 216.328C70.012 216.093 70.2669 215.623 70.5022 215.309C70.7375 214.976 70.9924 214.485 71.0709 214.172C71.1297 213.878 71.2866 213.642 71.3846 213.642C71.5022 213.642 71.5807 213.564 71.5807 213.446C71.5807 213.348 71.816 212.937 72.0905 212.525C72.365 212.113 72.6788 211.603 72.7768 211.388C72.8748 211.172 73.1101 210.76 73.3062 210.486C73.4827 210.192 73.8945 209.545 74.2278 209.016C74.5416 208.486 74.8553 208.016 74.9141 207.957C74.973 207.898 75.1102 207.702 75.2083 207.525C75.5612 206.937 77.8554 203.663 78.1103 203.408C78.2476 203.271 79.0515 202.232 79.8947 201.095C80.7575 199.958 81.6987 198.801 81.9732 198.527C82.2673 198.252 82.6203 197.821 82.7575 197.566C82.8948 197.331 83.7968 196.311 84.7576 195.292C85.738 194.292 86.6596 193.272 86.8361 193.017C87.0126 192.762 87.2871 192.468 87.444 192.351C88.0715 191.9 90.0127 189.88 90.0127 189.704C90.0127 189.606 90.15 189.528 90.3068 189.528C90.4637 189.528 90.601 189.39 90.601 189.233C90.601 189.077 90.7186 188.939 90.8559 188.939C90.9735 188.939 91.6206 188.43 92.2677 187.802C92.9344 187.194 93.8952 186.332 94.405 185.9C94.9345 185.469 95.5423 184.94 95.7972 184.724C96.3267 184.254 96.7384 183.92 97.7581 183.156C98.1895 182.842 98.5816 182.509 98.6012 182.43C98.6405 182.352 98.7973 182.273 98.9542 182.273C99.1111 182.273 99.2287 182.136 99.2287 181.979C99.2287 181.823 99.3856 181.685 99.6013 181.685C100.013 181.685 100.484 181.234 100.268 181.038C100.209 180.96 100.327 180.901 100.542 180.901C100.778 180.901 100.993 180.842 101.033 180.744C101.131 180.548 102.935 179.333 103.15 179.333C103.268 179.333 103.347 179.254 103.347 179.156C103.347 178.96 105.562 177.568 105.876 177.568C105.994 177.568 106.092 177.49 106.092 177.372C106.092 177.274 106.307 177.137 106.582 177.058C106.856 177 107.072 176.862 107.072 176.764C107.072 176.666 107.268 176.49 107.523 176.392C108.406 176 109.896 175.059 109.974 174.843C110.013 174.725 110.268 174.627 110.523 174.627C110.778 174.627 110.994 174.549 110.994 174.431C110.994 174.333 111.21 174.196 111.484 174.118C111.739 174.059 112.053 173.882 112.19 173.725C112.308 173.569 112.563 173.451 112.759 173.451C112.955 173.451 113.151 173.314 113.229 173.157C113.288 173 113.465 172.863 113.602 172.863C113.896 172.863 114.974 172.412 115.504 172.079C115.661 171.981 116.21 171.726 116.72 171.49C117.229 171.275 117.7 171.02 117.759 170.902C117.818 170.804 118.092 170.706 118.327 170.706C118.582 170.706 118.896 170.569 119.033 170.412C119.171 170.255 119.367 170.118 119.465 170.118C119.582 170.118 119.975 169.981 120.367 169.804C122.661 168.804 123.406 168.491 123.759 168.432C123.916 168.393 124.328 168.236 124.641 168.059C124.955 167.903 125.347 167.765 125.504 167.765C125.661 167.765 125.975 167.628 126.171 167.471C126.387 167.314 126.818 167.177 127.132 167.177C127.426 167.177 127.641 167.099 127.583 167.02C127.524 166.922 127.955 166.746 128.543 166.609C129.132 166.471 129.661 166.275 129.72 166.177C129.798 166.079 130.093 166.001 130.406 166.001C130.72 166.001 131.034 165.903 131.093 165.805C131.151 165.687 131.367 165.609 131.544 165.609C131.857 165.609 134.152 164.962 135.014 164.628C135.603 164.393 138.093 163.844 138.544 163.844C138.76 163.844 139.191 163.707 139.505 163.55C139.799 163.393 140.426 163.256 140.877 163.256C141.328 163.256 141.877 163.119 142.093 162.962C142.309 162.805 142.917 162.687 143.583 162.668C144.309 162.668 144.799 162.57 144.995 162.374C145.172 162.178 145.681 162.08 146.426 162.08C147.054 162.08 147.917 161.942 148.348 161.786C148.78 161.629 149.662 161.511 150.329 161.491C150.976 161.491 151.956 161.374 152.486 161.217C153.015 161.06 154.466 160.903 155.701 160.845C156.937 160.786 158.211 160.648 158.505 160.531C158.819 160.413 160.486 160.315 162.486 160.315C164.623 160.315 165.898 160.237 165.898 160.119C165.898 160.001 167.663 159.923 170.8 159.923C173.937 159.923 175.702 160.001 175.702 160.119ZM404.926 160.119C404.71 160.256 404.926 160.315 405.651 160.315C406.2 160.315 406.906 160.433 407.22 160.59C407.514 160.727 408.063 161.001 408.416 161.178C408.789 161.354 409.24 161.491 409.436 161.491C409.632 161.491 409.828 161.629 409.906 161.786C409.965 161.942 410.201 162.08 410.416 162.08C410.632 162.08 410.808 162.158 410.808 162.276C410.808 162.374 411.044 162.589 411.357 162.746C411.907 163.04 413.514 164.511 414.338 165.511C415.593 167.02 416.769 169.216 417.671 171.784C418.613 174.451 418.77 174.823 419.005 175.059C419.142 175.196 419.24 175.451 419.24 175.647C419.24 175.823 419.358 176.274 419.515 176.627C419.672 176.98 419.946 177.666 420.123 178.156C420.299 178.646 420.534 179.195 420.632 179.372C420.73 179.568 420.809 179.862 420.809 180.019C420.809 180.195 420.946 180.529 421.103 180.783C421.279 181.038 421.456 181.509 421.515 181.803C421.574 182.117 421.691 182.45 421.789 182.568C421.887 182.685 422.142 183.293 422.377 183.94C422.613 184.587 422.907 185.371 423.064 185.704C423.829 187.469 424.534 189.273 424.534 189.469C424.534 189.606 424.809 190.292 425.123 190.959C425.456 191.645 425.711 192.351 425.711 192.527C425.711 192.684 425.829 193.076 425.985 193.39C426.142 193.684 426.417 194.331 426.593 194.821C426.77 195.311 427.044 195.958 427.182 196.291C427.319 196.605 427.495 197.115 427.554 197.409C427.633 197.723 427.77 197.958 427.868 197.958C427.986 197.958 428.064 198.154 428.064 198.409C428.064 198.664 428.201 199.036 428.358 199.252C428.515 199.448 428.652 199.781 428.652 199.977C428.652 200.193 428.77 200.585 428.927 200.86C429.319 201.624 429.809 202.899 429.868 203.349C429.907 203.565 430.025 203.84 430.123 203.957C430.241 204.075 430.476 204.683 430.692 205.33C430.888 205.957 431.162 206.722 431.319 207.016C431.476 207.29 431.594 207.682 431.594 207.859C431.594 208.035 431.731 208.31 431.888 208.467C432.045 208.643 432.182 208.937 432.182 209.114C432.182 209.447 432.417 210.074 433.26 211.976C433.398 212.29 433.652 212.995 433.829 213.505C434.005 214.015 434.299 214.682 434.496 214.956C434.672 215.25 434.79 215.485 434.75 215.505C434.613 215.505 435.339 217.564 435.535 217.662C435.633 217.74 435.711 217.975 435.711 218.23C435.711 218.465 435.849 218.838 436.005 219.054C436.162 219.25 436.3 219.603 436.3 219.818C436.3 220.034 436.437 220.406 436.594 220.642C436.751 220.877 436.907 221.21 436.947 221.426C436.986 221.759 437.731 223.641 438.476 225.347C438.692 225.818 438.849 226.268 438.849 226.386C438.849 226.484 438.986 226.896 439.162 227.308C439.339 227.719 439.613 228.307 439.731 228.641C439.868 228.954 440.104 229.484 440.241 229.817C440.378 230.131 440.476 230.523 440.437 230.641C440.417 230.778 440.555 231.131 440.751 231.425C441.084 231.934 441.515 232.934 441.731 233.738C441.79 233.954 441.947 234.405 442.104 234.758C442.261 235.091 442.378 235.483 442.378 235.64C442.378 235.777 442.515 236.071 442.672 236.267C442.829 236.483 442.966 236.836 442.966 237.071C442.966 237.306 443.065 237.581 443.202 237.718C443.319 237.836 443.457 238.13 443.496 238.365C443.535 238.581 443.692 238.953 443.849 239.189C444.006 239.424 444.143 239.757 444.143 239.934C444.143 240.13 444.398 240.835 444.692 241.522C445.006 242.188 445.418 243.247 445.614 243.835C445.81 244.423 446.084 245.208 446.241 245.541C447.143 247.678 447.574 248.795 447.771 249.462C447.849 249.717 447.986 249.913 448.084 249.913C448.182 249.913 448.261 250.148 448.261 250.423C448.261 250.697 448.378 251.168 448.535 251.442C448.79 251.952 449.633 254.05 450.065 255.304C450.418 256.265 450.555 256.638 450.908 257.441C451.084 257.853 451.261 258.304 451.28 258.441C451.3 258.579 451.418 258.814 451.535 258.971C451.673 259.108 451.79 259.461 451.83 259.735C451.869 260.01 452.065 260.48 452.261 260.774C452.437 261.068 452.555 261.441 452.496 261.578C452.457 261.715 452.535 261.951 452.692 262.068C452.849 262.206 452.967 262.48 452.967 262.696C452.967 262.911 453.084 263.323 453.241 263.598C453.398 263.892 453.732 264.656 453.967 265.303C454.222 265.95 454.536 266.656 454.673 266.872C454.81 267.087 454.928 267.44 454.928 267.695C454.928 267.93 455.026 268.185 455.124 268.244C455.241 268.303 455.32 268.558 455.32 268.773C455.32 269.009 455.634 269.832 456.006 270.636C456.379 271.44 456.692 272.204 456.692 272.361C456.692 272.655 457.104 273.714 457.594 274.655C457.751 274.93 457.869 275.302 457.869 275.479C457.869 275.655 457.947 275.792 458.045 275.792C458.143 275.792 458.281 276.126 458.359 276.518C458.438 276.929 458.555 277.341 458.634 277.459C458.712 277.557 458.987 278.223 459.242 278.929C459.693 280.204 460.3 281.674 460.634 282.301C460.732 282.497 460.81 282.85 460.81 283.086C460.81 283.34 460.948 283.713 461.104 283.909C461.261 284.125 461.398 284.438 461.398 284.634C461.398 284.811 461.536 285.066 461.693 285.203C461.849 285.34 461.987 285.615 461.987 285.811C461.987 286.026 462.065 286.34 462.183 286.536C462.281 286.713 462.614 287.536 462.889 288.34C463.183 289.144 463.536 290.183 463.693 290.634C463.869 291.104 464.065 291.477 464.163 291.477C464.261 291.477 464.34 291.673 464.34 291.928C464.34 292.183 464.477 292.555 464.634 292.771C464.791 292.967 464.928 293.32 464.928 293.535C464.928 293.751 465.065 294.104 465.222 294.3C465.379 294.516 465.516 294.869 465.516 295.084C465.516 295.319 465.654 295.672 465.81 295.868C465.967 296.084 466.105 296.417 466.105 296.613C466.105 296.809 466.281 297.3 466.497 297.692C466.712 298.103 466.889 298.535 466.889 298.672C466.889 298.927 466.948 299.084 467.536 300.26C467.712 300.633 467.869 301.044 467.869 301.221C467.869 301.378 467.987 301.75 468.144 302.025C468.301 302.319 468.556 302.907 468.712 303.338C468.889 303.769 469.281 304.809 469.614 305.671C469.948 306.514 470.222 307.318 470.222 307.455C470.222 307.612 470.36 307.965 470.516 308.279C471.066 309.357 471.595 310.612 471.595 310.847C471.595 310.984 471.869 311.671 472.183 312.396C472.517 313.102 472.771 313.788 472.771 313.906C472.771 314.023 473.046 314.651 473.36 315.278C473.693 315.905 473.948 316.592 473.948 316.807C473.948 317.003 474.026 317.317 474.124 317.513C474.673 318.533 475.124 319.532 475.085 319.67C475.066 319.748 475.203 320.081 475.379 320.434C475.556 320.787 475.713 321.218 475.713 321.395C475.713 321.571 475.948 322.199 476.223 322.787C476.497 323.375 476.889 324.355 477.085 324.963C477.281 325.571 477.576 326.336 477.752 326.669C477.928 326.983 478.066 327.394 478.066 327.551C478.066 327.708 478.203 328.022 478.36 328.218C478.517 328.433 478.654 328.786 478.654 329.022C478.654 329.257 478.791 329.61 478.948 329.825C479.105 330.021 479.242 330.335 479.242 330.512C479.242 330.688 479.399 331.119 479.576 331.492C479.772 331.864 479.929 332.276 479.948 332.433C479.987 332.59 480.066 332.766 480.164 332.825C480.242 332.884 480.36 333.119 480.38 333.335C480.419 333.55 480.576 333.962 480.733 334.256C480.889 334.55 481.007 334.962 481.007 335.178C481.007 335.393 481.085 335.609 481.184 335.687C481.282 335.746 481.438 336.08 481.497 336.413C481.576 336.766 481.772 337.158 481.909 337.315C482.066 337.452 482.184 337.785 482.184 338.06C482.184 338.315 482.262 338.687 482.36 338.883C482.458 339.06 482.713 339.609 482.929 340.099C483.125 340.589 483.439 341.314 483.615 341.726C483.791 342.138 483.948 342.628 483.948 342.843C483.948 343.04 484.027 343.275 484.144 343.334C484.242 343.392 484.419 343.804 484.537 344.216C484.654 344.647 484.831 345 484.929 345C485.046 345 485.125 345.255 485.125 345.569C485.125 345.882 485.282 346.431 485.458 346.804C485.635 347.157 485.89 347.686 486.046 347.98C486.184 348.255 486.301 348.647 486.301 348.823C486.301 349 486.439 349.392 486.595 349.666C486.948 350.313 488.125 353.234 488.184 353.587C488.223 353.842 488.713 355.019 489.027 355.587C489.125 355.764 489.262 356.175 489.321 356.528C489.399 356.862 489.556 357.195 489.654 357.254C489.752 357.332 489.831 357.587 489.831 357.842C489.831 358.097 489.909 358.352 490.007 358.41C490.105 358.489 490.321 358.9 490.478 359.371C490.654 359.822 491.007 360.783 491.262 361.508C491.537 362.214 491.713 362.841 491.674 362.9C491.615 362.939 491.713 363.096 491.89 363.233C492.047 363.371 492.184 363.645 492.184 363.861C492.184 364.076 492.302 364.488 492.458 364.763C492.596 365.057 492.929 365.782 493.164 366.37C493.4 366.958 493.713 367.743 493.87 368.096C494.027 368.448 494.145 368.899 494.145 369.095C494.145 369.291 494.282 369.566 494.439 369.703C494.596 369.84 494.733 370.154 494.733 370.389C494.733 370.625 494.87 370.938 495.027 371.076C495.184 371.213 495.262 371.389 495.223 371.487C495.164 371.566 495.282 371.977 495.478 372.389C495.674 372.801 496.008 373.664 496.223 374.311C496.419 374.957 496.713 375.604 496.851 375.742C496.968 375.879 497.086 376.251 497.086 376.546C497.086 376.84 497.184 377.173 497.321 377.31C497.439 377.428 497.576 377.722 497.615 377.957C497.655 378.173 497.812 378.545 497.968 378.781C498.125 379.016 498.263 379.388 498.263 379.643C498.263 379.878 498.341 380.114 498.459 380.192C498.557 380.251 498.733 380.584 498.831 380.937C498.929 381.29 499.204 382.055 499.439 382.643C499.674 383.231 499.91 383.898 499.969 384.113C500.027 384.329 500.321 385.054 500.635 385.741C500.949 386.407 501.204 387.035 501.204 387.152C501.204 387.25 501.341 387.662 501.518 388.074C501.694 388.485 501.949 389.074 502.086 389.407C502.223 389.721 502.478 390.328 502.655 390.74C502.831 391.152 502.969 391.563 502.969 391.681C502.969 391.916 503.4 392.975 503.871 393.877C504.027 394.191 504.145 394.583 504.145 394.779C504.145 394.955 504.282 395.289 504.439 395.504C504.596 395.7 504.733 396.053 504.733 396.269C504.733 396.484 504.871 396.857 505.028 397.092C505.184 397.327 505.341 397.68 505.38 397.916C505.42 398.131 505.498 398.386 505.577 398.445C505.655 398.523 505.714 398.935 505.714 399.347V400.092H477.791H449.869L449.731 399.366C449.653 398.955 449.477 398.386 449.32 398.092C449.163 397.798 449.045 397.386 449.045 397.19C449.045 396.975 448.927 396.759 448.79 396.7C448.653 396.661 448.535 396.367 448.496 396.092C448.476 395.798 448.32 395.308 448.163 394.994C448.006 394.681 447.869 394.249 447.869 394.034C447.869 393.818 447.79 393.602 447.692 393.544C447.594 393.485 447.457 393.191 447.378 392.897C447.32 392.583 447.143 392.073 446.986 391.76C446.849 391.426 446.692 390.995 446.633 390.779C446.574 390.564 446.339 389.897 446.104 389.309C445.869 388.721 445.594 387.917 445.476 387.544C445.378 387.172 445.202 386.78 445.104 386.682C445.006 386.564 444.927 386.309 444.927 386.074C444.927 385.839 444.79 385.486 444.633 385.27C444.476 385.074 444.339 384.721 444.339 384.486C444.339 384.27 444.202 383.917 444.045 383.702C443.888 383.506 443.751 383.113 443.751 382.819C443.751 382.545 443.653 382.231 443.535 382.114C443.417 381.996 443.261 381.604 443.163 381.251C442.986 380.584 442.515 379.173 442.202 378.428C442.123 378.212 441.908 377.722 441.751 377.349C441.574 376.977 441.378 376.369 441.319 376.036C441.241 375.683 441.084 375.35 440.986 375.291C440.888 375.212 440.81 374.957 440.81 374.703C440.81 374.448 440.731 374.193 440.633 374.134C440.535 374.075 440.221 373.252 439.927 372.311C439.633 371.35 439.26 370.429 439.104 370.252C438.947 370.076 438.868 369.821 438.947 369.723C439.006 369.605 438.947 369.272 438.79 368.978C438.476 368.35 438.123 367.39 437.829 366.331C437.711 365.919 437.555 365.586 437.456 365.586C437.358 365.586 437.28 365.39 437.28 365.135C437.28 364.9 437.143 364.449 436.986 364.135C436.829 363.841 436.692 363.429 436.692 363.253C436.672 363.076 436.515 362.586 436.3 362.155C436.084 361.724 435.927 361.253 435.907 361.116C435.907 360.979 435.829 360.724 435.711 360.528C435.535 360.234 435.201 359.293 434.339 356.763C434.201 356.391 433.986 355.803 433.848 355.489C433.711 355.156 433.554 354.724 433.496 354.509C433.437 354.293 433.201 353.627 432.966 353.038C432.731 352.45 432.456 351.686 432.358 351.333C432.26 350.98 432.084 350.647 431.986 350.588C431.868 350.509 431.79 350.215 431.79 349.921C431.79 349.607 431.652 349.255 431.495 349.117C431.339 348.98 431.201 348.647 431.201 348.353C431.201 348.078 431.064 347.666 430.907 347.47C430.75 347.255 430.613 346.902 430.613 346.686C430.613 346.451 430.476 346.098 430.319 345.902C430.162 345.686 430.025 345.314 430.025 345.059C430.025 344.824 429.868 344.314 429.691 343.922L429.358 343.236L380.925 343.196C340.904 343.138 332.453 343.177 332.237 343.392C332.1 343.549 331.884 344.059 331.766 344.53C331.649 345 331.472 345.451 331.374 345.51C331.276 345.569 331.198 345.784 331.198 346C331.198 346.196 331.119 346.529 331.002 346.725C330.786 347.118 330.276 348.49 329.982 349.549C329.864 349.96 329.708 350.294 329.609 350.294C329.511 350.294 329.433 350.588 329.433 350.921C329.433 351.274 329.296 351.744 329.139 351.94C328.982 352.156 328.845 352.509 328.845 352.744C328.845 352.96 328.668 353.489 328.453 353.921C328.237 354.352 328.06 354.842 328.06 355.038C328.06 355.215 327.982 355.411 327.884 355.489C327.786 355.548 327.629 355.881 327.551 356.215C327.492 356.567 327.355 356.979 327.276 357.156C327.1 357.528 326.707 358.665 326.492 359.41C326.237 360.312 325.688 361.743 325.531 361.959C325.433 362.057 325.296 362.508 325.217 362.939C325.139 363.371 325.021 363.802 324.923 363.92C324.845 364.018 324.531 364.802 324.256 365.645C323.727 367.174 323.531 367.703 323.06 368.821C322.923 369.135 322.648 369.938 322.452 370.585C322.256 371.232 322.021 371.84 321.943 371.938C321.864 372.056 321.786 372.35 321.786 372.585C321.786 372.84 321.609 373.389 321.394 373.82C321.178 374.252 321.001 374.742 321.001 374.938C321.001 375.134 320.864 375.467 320.707 375.663C320.55 375.879 320.413 376.251 320.413 376.506C320.413 376.761 320.335 376.957 320.237 376.957C320.139 376.957 320.001 377.271 319.923 377.663C319.864 378.055 319.727 378.526 319.629 378.702C319.531 378.879 319.354 379.33 319.217 379.702C317.982 383.329 317.315 385.211 317.138 385.427C317.021 385.564 316.884 385.937 316.825 386.27C316.687 387.035 315.746 389.858 315.393 390.524C315.236 390.799 315.119 391.211 315.119 391.407C315.119 391.622 314.982 391.956 314.825 392.171C314.668 392.367 314.531 392.681 314.531 392.838C314.531 392.995 314.393 393.387 314.236 393.7C314.08 393.995 313.942 394.445 313.942 394.681C313.942 394.916 313.825 395.269 313.687 395.485C313.55 395.7 313.276 396.406 313.079 397.053C312.883 397.7 312.589 398.465 312.452 398.759C312.295 399.033 312.177 399.464 312.177 399.68V400.092H284.98H257.764L257.823 399.112C257.862 398.582 257.979 398.19 258.078 398.249C258.176 398.308 258.254 398.151 258.254 397.896C258.254 397.622 258.391 397.249 258.548 397.033C258.705 396.837 258.842 396.426 258.842 396.151C258.842 395.857 258.98 395.524 259.136 395.387C259.293 395.249 259.431 394.975 259.431 394.759C259.431 394.543 259.548 394.132 259.705 393.857C260.117 393.053 260.568 391.838 260.705 391.113C260.784 390.779 260.901 390.485 260.98 390.485C261.117 390.485 261.666 389.034 261.862 388.074C261.94 387.78 262.078 387.544 262.176 387.544C262.293 387.544 262.372 387.427 262.372 387.289C262.391 387.172 262.548 386.701 262.764 386.27C262.98 385.839 263.137 385.329 263.156 385.133C263.156 384.8 263.215 384.662 263.803 383.466C263.98 383.094 264.137 382.643 264.137 382.447C264.137 382.251 264.254 381.957 264.411 381.8C264.568 381.643 264.803 381.153 264.921 380.682C265.039 380.231 265.235 379.663 265.352 379.428C265.823 378.506 265.901 378.33 265.901 377.996C265.901 377.8 266.039 377.467 266.195 377.271C266.352 377.055 266.49 376.722 266.49 376.546C266.49 376.349 266.607 375.957 266.764 375.644C266.921 375.35 267.195 374.703 267.372 374.212C267.548 373.722 267.823 373.075 267.98 372.781C268.137 372.468 268.254 371.977 268.254 371.664C268.254 371.37 268.372 371.076 268.529 371.017C268.666 370.958 268.843 370.664 268.921 370.35C269.039 369.821 269.333 369.135 269.941 367.88C270.098 367.566 270.215 367.115 270.215 366.86C270.215 366.625 270.352 366.311 270.509 366.174C270.666 366.037 270.803 365.782 270.803 365.606C270.803 365.41 270.941 365.096 271.098 364.88C271.254 364.684 271.392 364.272 271.392 363.998C271.392 363.704 271.509 363.371 271.666 363.253C271.823 363.135 271.98 362.782 272.039 362.488C272.137 361.881 272.607 360.626 272.784 360.489C272.843 360.43 272.96 360.116 273.039 359.802C273.156 359.253 273.411 358.646 274.039 357.352C274.176 357.077 274.333 356.528 274.411 356.116C274.49 355.724 274.608 355.391 274.686 355.391C274.843 355.391 275.294 354.195 275.451 353.332C275.51 352.999 275.686 352.666 275.823 352.587C275.98 352.509 276.098 352.254 276.098 352.058C276.098 351.842 276.372 351.097 276.686 350.431C277.019 349.745 277.274 349.078 277.274 348.941C277.274 348.823 277.549 348.137 277.863 347.412C278.196 346.706 278.451 345.922 278.451 345.686C278.451 345.451 278.588 345.137 278.745 345C278.902 344.863 279.039 344.588 279.039 344.373C279.039 344.177 279.157 343.804 279.314 343.569C279.47 343.334 279.647 342.883 279.706 342.589C279.765 342.275 279.882 341.922 279.98 341.804C280.078 341.667 280.235 341.275 280.314 340.922C280.372 340.589 280.529 340.295 280.627 340.295C280.725 340.295 280.804 340.04 280.804 339.726C280.804 339.413 280.941 339.06 281.098 338.922C281.255 338.785 281.392 338.471 281.392 338.217C281.392 337.981 281.529 337.648 281.686 337.472C281.843 337.315 281.98 336.981 281.98 336.727C281.98 336.472 282.118 336.099 282.274 335.903C282.431 335.687 282.569 335.374 282.569 335.197C282.569 335.021 282.824 334.354 283.118 333.707C283.431 333.08 283.745 332.296 283.824 331.962C283.902 331.649 284.078 331.257 284.196 331.119C284.314 330.962 284.451 330.668 284.471 330.433C284.51 330.198 284.667 329.825 284.824 329.57C284.98 329.335 285.118 328.963 285.118 328.727C285.118 328.512 285.216 328.335 285.314 328.335C285.431 328.335 285.51 328.12 285.51 327.865C285.51 327.61 285.647 327.139 285.804 326.826C286.294 325.885 286.686 324.904 286.784 324.414C286.843 324.14 287 323.65 287.157 323.336C287.314 323.003 287.588 322.395 287.765 321.964C287.941 321.532 288.157 321.022 288.255 320.846C288.373 320.65 288.451 320.297 288.451 320.062C288.451 319.826 288.588 319.493 288.745 319.317C288.922 319.121 289.098 318.787 289.137 318.552C289.294 317.748 289.451 317.356 289.647 317.356C289.745 317.356 289.824 317.199 289.824 317.003C289.843 316.69 290.255 315.415 290.765 314.16C290.902 313.847 291 313.513 291 313.415C291 313.298 291.138 313.082 291.294 312.925C291.451 312.749 291.589 312.435 291.589 312.22C291.589 312.004 291.706 311.592 291.863 311.318C292.02 311.024 292.294 310.396 292.471 309.906C292.647 309.416 292.922 308.789 293.079 308.494C293.236 308.22 293.353 307.769 293.353 307.495C293.353 307.24 293.491 306.906 293.647 306.769C293.804 306.632 293.942 306.338 293.942 306.103C293.942 305.867 294.079 305.495 294.236 305.279C294.393 305.083 294.53 304.711 294.53 304.456C294.53 304.22 294.608 304.024 294.706 304.024C294.804 304.024 294.961 303.73 295.04 303.397C295.177 302.73 295.549 301.77 296.02 300.848C296.177 300.574 296.295 300.162 296.295 299.966C296.295 299.75 296.432 299.417 296.589 299.201C296.746 299.005 296.883 298.652 296.883 298.437C296.883 298.221 297.02 297.868 297.177 297.672C297.334 297.456 297.471 297.045 297.471 296.751C297.471 296.457 297.608 296.182 297.765 296.104C297.922 296.045 298.059 295.79 298.059 295.555C298.059 295.3 298.177 294.927 298.334 294.712C298.471 294.496 298.667 294.025 298.746 293.673C298.804 293.339 298.961 293.045 299.059 293.045C299.157 293.045 299.236 292.849 299.236 292.594C299.236 292.359 299.51 291.634 299.824 290.987C300.157 290.34 300.412 289.712 300.412 289.595C300.412 289.399 300.667 288.752 301.393 287.066C301.491 286.85 301.608 286.34 301.687 285.928C301.746 285.536 301.883 285.203 301.981 285.203C302.099 285.203 302.177 285.046 302.177 284.85C302.177 284.674 302.314 284.34 302.471 284.144C302.628 283.929 302.765 283.615 302.765 283.458C302.785 283.282 302.942 282.791 303.158 282.36C303.373 281.929 303.53 281.478 303.55 281.36C303.55 281.223 303.687 280.87 303.844 280.576C304.001 280.262 304.138 279.851 304.138 279.655C304.138 279.478 304.216 279.321 304.295 279.321C304.393 279.321 304.609 278.812 304.805 278.204C305.001 277.576 305.334 276.753 305.53 276.38C305.746 276.008 305.903 275.518 305.903 275.283C305.903 275.047 306.04 274.753 306.197 274.616C306.354 274.479 306.491 274.185 306.491 273.949C306.491 273.734 306.628 273.361 306.785 273.165C306.942 272.949 307.079 272.577 307.079 272.322C307.079 272.067 307.177 271.871 307.275 271.871C307.393 271.871 307.471 271.675 307.471 271.42C307.471 271.185 307.589 270.793 307.746 270.577C307.903 270.362 308.079 269.852 308.158 269.46C308.236 269.068 308.373 268.734 308.452 268.734C308.55 268.734 308.668 268.44 308.746 268.087C308.883 267.499 309.021 267.127 309.746 265.441C309.903 265.088 310.021 264.617 310.021 264.401C310.021 264.186 310.119 264.068 310.217 264.127C310.334 264.186 310.432 264.088 310.452 263.892C310.452 263.696 310.491 263.441 310.491 263.303C310.511 263.186 310.668 262.911 310.864 262.715C311.04 262.5 311.197 262.108 311.197 261.813C311.197 261.539 311.334 261.186 311.491 261.01C311.648 260.853 311.785 260.559 311.785 260.363C311.785 260.167 311.903 259.833 312.06 259.618C312.197 259.402 312.393 258.931 312.472 258.579C312.53 258.245 312.668 257.951 312.746 257.951C312.805 257.951 312.903 257.716 312.923 257.441C312.942 257.147 313.04 256.814 313.138 256.696C313.217 256.579 313.413 256.128 313.55 255.697C313.687 255.265 313.864 254.834 313.962 254.716C314.06 254.618 314.138 254.383 314.138 254.206C314.138 254.01 314.295 253.579 314.472 253.207C314.648 252.854 314.903 252.324 315.06 252.03C315.197 251.756 315.315 251.305 315.315 251.03C315.315 250.776 315.452 250.442 315.609 250.305C315.766 250.168 315.903 249.874 315.903 249.638C315.903 249.423 316.04 249.05 316.197 248.854C316.354 248.638 316.491 248.325 316.491 248.129C316.491 247.952 316.629 247.541 316.785 247.246C316.942 246.933 317.08 246.541 317.08 246.364C317.08 246.188 317.217 245.933 317.374 245.796C317.531 245.658 317.668 245.364 317.668 245.129C317.668 244.913 317.805 244.541 317.962 244.345C318.119 244.129 318.256 243.757 318.256 243.521C318.256 243.286 318.433 242.874 318.648 242.62C318.844 242.345 318.982 242.071 318.923 242.012C318.864 241.953 319.001 241.561 319.217 241.11C319.452 240.679 319.629 240.188 319.629 240.012C319.629 239.855 319.727 239.718 319.825 239.718C319.942 239.718 320.021 239.502 320.021 239.228C320.021 238.953 320.276 238.247 320.59 237.64C320.923 237.052 321.237 236.248 321.295 235.856C321.354 235.444 321.531 234.993 321.688 234.817C321.845 234.64 321.982 234.346 321.982 234.17C321.982 233.993 322.06 233.817 322.158 233.758C322.256 233.699 322.394 233.307 322.472 232.915C322.55 232.503 322.668 232.072 322.746 231.974C322.903 231.758 323.648 229.837 323.845 229.17C323.903 228.935 324.06 228.739 324.158 228.739C324.256 228.739 324.335 228.562 324.335 228.347C324.335 228.131 324.57 227.406 324.845 226.719C325.119 226.053 325.394 225.288 325.452 225.014C325.492 224.759 325.59 224.484 325.668 224.426C325.805 224.328 326.08 223.661 326.531 222.367C326.766 221.759 327.021 221.112 327.551 219.857C327.727 219.446 327.864 218.956 327.864 218.76C327.864 218.563 328.002 218.289 328.158 218.152C328.315 218.014 328.453 217.701 328.453 217.466C328.453 217.23 328.59 216.917 328.747 216.779C328.904 216.642 329.041 216.289 329.041 215.976C329.041 215.662 329.139 215.407 329.237 215.407C329.355 215.407 329.433 215.25 329.433 215.054C329.453 214.878 329.609 214.368 329.825 213.937C330.041 213.505 330.198 213.054 330.217 212.937C330.217 212.799 330.355 212.447 330.511 212.152C330.668 211.839 330.806 211.447 330.806 211.27C330.806 211.113 330.943 210.8 331.1 210.584C331.257 210.388 331.394 210.035 331.394 209.819C331.394 209.604 331.531 209.251 331.688 209.055C331.845 208.839 331.982 208.427 331.982 208.133C331.982 207.839 332.119 207.565 332.276 207.486C332.433 207.427 332.57 207.231 332.57 207.035C332.57 206.741 333.08 205.506 333.57 204.585C333.668 204.389 333.747 204.055 333.747 203.859C333.747 203.644 333.845 203.408 333.943 203.349C334.061 203.291 334.237 202.84 334.355 202.35C334.472 201.879 334.649 201.487 334.747 201.487C334.845 201.487 334.923 201.232 334.923 200.918C334.923 200.605 335.061 200.252 335.218 200.115C335.374 199.977 335.512 199.703 335.512 199.487C335.512 199.272 335.629 198.86 335.786 198.585C336.296 197.585 336.688 196.566 336.688 196.233C336.688 196.056 336.825 195.723 336.982 195.527C337.139 195.311 337.276 194.88 337.276 194.586C337.276 194.272 337.414 193.978 337.571 193.919C337.727 193.841 337.865 193.566 337.865 193.253C337.865 192.959 338.002 192.606 338.159 192.468C338.316 192.331 338.453 191.998 338.453 191.743C338.453 191.468 338.629 191.037 338.845 190.763C339.061 190.488 339.237 190.096 339.237 189.9C339.237 189.528 339.276 189.39 339.884 188.194C340.061 187.822 340.218 187.332 340.218 187.096C340.218 186.842 340.394 186.449 340.61 186.195C340.826 185.94 341.002 185.567 341.002 185.332C341.002 185.097 341.139 184.744 341.296 184.548C341.453 184.332 341.59 183.96 341.59 183.705C341.59 183.45 341.688 183.254 341.786 183.254C341.904 183.254 341.982 182.999 341.982 182.685C341.982 182.371 342.12 182.019 342.277 181.881C342.433 181.744 342.571 181.489 342.571 181.313C342.59 181.136 342.747 180.646 342.963 180.215C343.179 179.784 343.335 179.293 343.355 179.137C343.355 178.96 343.473 178.666 343.61 178.45C343.767 178.235 344.041 177.509 344.257 176.843C344.453 176.157 344.688 175.608 344.786 175.608C344.865 175.608 344.924 175.392 344.924 175.137C344.924 174.863 345.002 174.588 345.12 174.529C345.218 174.47 345.453 173.921 345.63 173.333C345.787 172.765 346.022 172.275 346.12 172.275C346.218 172.275 346.296 172.118 346.296 171.902C346.296 171.706 346.532 171.02 346.826 170.392C347.1 169.745 347.375 169.059 347.414 168.844C347.453 168.628 347.61 168.177 347.747 167.863C348.198 166.922 348.571 165.981 348.963 164.824C349.159 164.236 349.395 163.648 349.493 163.511C349.591 163.374 349.708 162.982 349.767 162.629C349.806 162.276 349.983 161.844 350.14 161.668C350.296 161.511 350.414 161.217 350.414 161.021C350.414 160.845 350.512 160.511 350.61 160.296C350.826 159.923 351.336 159.923 378.023 159.923C395.651 159.923 405.122 160.001 404.926 160.119Z" fill="#0089EC"/>
	<path d="M380.513 207.29C380.435 207.603 380.258 208.133 380.102 208.486C379.945 208.819 379.827 209.191 379.827 209.289C379.827 209.407 379.572 210.074 379.239 210.799C378.925 211.524 378.651 212.23 378.651 212.387C378.651 212.544 378.572 212.818 378.474 213.014C378.356 213.191 378.043 213.956 377.768 214.72C377.494 215.465 377.18 216.249 377.082 216.426C376.964 216.622 376.886 216.994 376.886 217.269C376.886 217.543 376.807 217.759 376.709 217.759C376.611 217.759 376.454 218.053 376.396 218.386C376.317 218.739 376.18 219.112 376.101 219.229C376.023 219.327 375.886 219.72 375.807 220.072C375.729 220.425 375.552 220.955 375.396 221.249C375.239 221.543 375.121 221.876 375.121 222.013C375.121 222.268 374.67 223.366 374.219 224.268C374.062 224.543 373.944 224.954 373.944 225.15C373.944 225.366 373.807 225.699 373.65 225.915C373.493 226.111 373.356 226.523 373.356 226.797C373.356 227.091 373.219 227.425 373.062 227.562C372.905 227.699 372.768 228.052 372.768 228.346C372.768 228.64 372.631 228.993 372.474 229.13C372.317 229.268 372.18 229.62 372.18 229.915C372.18 230.209 372.042 230.561 371.886 230.699C371.729 230.836 371.591 231.11 371.591 231.307C371.591 231.659 371.219 232.659 370.689 233.679C370.533 233.953 370.415 234.424 370.415 234.679C370.415 234.953 370.337 235.228 370.219 235.306C370.121 235.365 369.944 235.698 369.846 236.051C369.748 236.404 369.474 237.169 369.238 237.757C369.003 238.345 368.729 239.09 368.631 239.423C368.533 239.737 368.376 240.188 368.278 240.404C368.18 240.619 367.905 241.345 367.689 241.992C367.474 242.658 367.14 243.54 366.964 243.952C366.415 245.226 366.317 245.481 366.199 246.128C366.121 246.481 365.983 246.775 365.885 246.775C365.787 246.775 365.709 246.971 365.709 247.207C365.689 247.462 365.572 247.873 365.415 248.148C365.258 248.422 365.14 248.834 365.121 249.05C365.121 249.285 365.003 249.579 364.846 249.697C364.709 249.814 364.532 250.265 364.454 250.696C364.395 251.128 364.258 251.481 364.16 251.481C364.062 251.481 363.944 251.775 363.905 252.108C363.846 252.461 363.513 253.461 363.16 254.324C362.807 255.186 362.395 256.245 362.219 256.676C362.062 257.107 361.866 257.637 361.768 257.853C361.67 258.068 361.415 258.813 361.199 259.519C360.964 260.225 360.65 261.029 360.493 261.323C360.336 261.597 360.218 262.048 360.218 262.303C360.218 262.538 360.081 262.93 359.924 263.126C359.767 263.342 359.63 263.715 359.63 263.969C359.63 264.224 359.552 264.42 359.454 264.42C359.375 264.42 359.101 265.009 358.846 265.734C358.611 266.479 358.336 267.165 358.238 267.283C358.14 267.4 358.042 267.773 358.003 268.106C357.964 268.42 357.787 268.93 357.611 269.204C357.434 269.479 357.277 269.93 357.277 270.204C357.277 270.479 357.199 270.694 357.12 270.694C357.022 270.694 356.807 271.204 356.611 271.812C356.414 272.439 356.101 273.302 355.924 273.733C355.728 274.164 355.414 275.047 355.199 275.694C355.003 276.341 354.728 277.046 354.591 277.262C354.454 277.478 354.336 277.831 354.336 278.066C354.336 278.301 354.199 278.595 354.042 278.732C353.885 278.87 353.748 279.164 353.748 279.399C353.748 279.634 353.61 280.007 353.454 280.223C353.297 280.419 353.159 280.83 353.159 281.105C353.159 281.379 353.022 281.771 352.865 281.987C352.708 282.183 352.571 282.536 352.571 282.752C352.571 282.987 352.395 283.497 352.179 283.928C351.963 284.359 351.787 284.849 351.787 285.046C351.787 285.242 351.708 285.398 351.591 285.398C351.493 285.398 351.395 285.575 351.395 285.791C351.395 285.987 351.277 286.457 351.12 286.81C350.963 287.163 350.708 287.83 350.532 288.28C349.904 289.967 349.571 290.79 349.414 291.182C349.042 292.064 348.61 293.378 348.512 293.927C348.453 294.241 348.277 294.593 348.14 294.672C347.983 294.75 347.865 295.025 347.865 295.26C347.865 295.495 347.728 295.946 347.571 296.26C347.414 296.554 347.277 296.887 347.277 296.985C347.277 297.181 413.534 297.24 414.024 297.044C414.318 296.927 414.22 296.495 413.613 295.064C413.475 294.731 413.358 294.319 413.358 294.143C413.358 293.966 413.279 293.829 413.162 293.829C413.064 293.829 412.965 293.672 412.965 293.496C412.965 293.005 412.514 291.868 412.318 291.868C412.22 291.868 412.181 291.751 412.24 291.594C412.299 291.457 412.201 291.084 412.044 290.77C411.887 290.457 411.671 289.927 411.593 289.614C411.495 289.28 411.201 288.437 410.926 287.692C410.652 286.967 410.181 285.791 409.907 285.046C409.632 284.32 409.358 283.555 409.299 283.34C409.24 283.124 409.083 282.673 408.946 282.36C408.808 282.026 408.534 281.379 408.357 280.889C408.181 280.399 407.906 279.752 407.75 279.458C407.593 279.144 407.475 278.713 407.475 278.478C407.475 278.242 407.338 277.87 407.181 277.674C407.024 277.458 406.887 277.086 406.887 276.85C406.887 276.595 406.808 276.36 406.73 276.301C406.632 276.243 406.318 275.458 406.004 274.576C405.71 273.674 405.397 272.87 405.299 272.753C405.2 272.655 405.122 272.419 405.122 272.243C405.122 272.047 404.965 271.616 404.789 271.243C404.612 270.89 404.357 270.361 404.2 270.067C404.063 269.792 403.946 269.381 403.946 269.165C403.946 268.949 403.769 268.361 403.534 267.832C402.926 266.361 402.847 266.165 402.495 265.009C402.298 264.42 401.965 263.479 401.749 262.95C401.142 261.48 401.043 261.225 400.926 260.793C400.887 260.578 400.475 259.48 400.024 258.343C399.573 257.206 399.161 256.108 399.102 255.892C398.965 255.382 398.514 254.265 398.161 253.578C398.004 253.265 397.867 252.853 397.867 252.637C397.867 252.422 397.788 252.108 397.69 251.912C397.298 251.147 396.926 250.167 396.808 249.579C396.73 249.226 396.573 248.893 396.475 248.834C396.377 248.756 396.298 248.559 396.298 248.383C396.298 248.187 396.122 247.716 395.906 247.305C395.69 246.913 395.514 246.422 395.514 246.246C395.514 246.05 395.239 245.364 394.926 244.736C394.592 244.109 394.337 243.423 394.337 243.246C394.337 243.05 394.2 242.639 394.043 242.344C393.886 242.031 393.749 241.58 393.749 241.325C393.749 241.09 393.671 240.894 393.553 240.894C393.455 240.894 393.357 240.756 393.357 240.58C393.357 240.404 393.063 239.541 392.71 238.659C391.984 236.914 391.651 236.031 391.376 235.051C391.259 234.718 391.102 234.424 391.004 234.424C390.886 234.424 390.808 234.169 390.808 233.855C390.808 233.542 390.671 233.149 390.514 232.973C390.357 232.816 390.22 232.385 390.22 232.032C390.22 231.679 390.082 231.208 389.925 231.012C389.769 230.797 389.631 230.483 389.631 230.287C389.631 230.111 389.494 229.856 389.337 229.718C389.18 229.581 389.043 229.268 389.043 229.013C389.043 228.738 388.965 228.385 388.847 228.189C388.612 227.777 388.063 226.268 387.925 225.601C387.867 225.327 387.69 224.935 387.553 224.719C387.396 224.503 387.278 224.19 387.278 224.013C387.278 223.817 387.161 223.425 387.004 223.111C386.847 222.817 386.572 222.17 386.396 221.68C386.219 221.19 385.945 220.504 385.788 220.151C385.631 219.798 385.514 219.347 385.514 219.171C385.514 218.975 385.376 218.641 385.219 218.426C385.063 218.23 384.925 217.877 384.925 217.641C384.925 217.426 384.847 217.171 384.749 217.053C384.651 216.955 384.337 216.171 384.043 215.308C383.749 214.446 383.435 213.661 383.337 213.544C383.239 213.446 383.16 213.171 383.16 212.936C383.16 212.681 383.082 212.426 382.964 212.367C382.866 212.309 382.69 211.877 382.572 211.426C382.455 210.975 382.219 210.328 382.062 209.976C381.906 209.642 381.788 209.231 381.788 209.074C381.788 208.897 381.709 208.721 381.611 208.662C381.513 208.603 381.376 208.309 381.298 208.015C381.239 207.741 381.062 207.329 380.906 207.113C380.651 206.741 380.631 206.741 380.513 207.29Z" fill="#0089EC"/>
</svg>
